<svg id="Layer_1" data-name="Layer 1" xmlns="http://www.w3.org/2000/svg" xmlns:xlink="http://www.w3.org/1999/xlink" viewBox="0 0 421.68 392.32"><defs><style>.cls-1,.cls-14,.cls-15{fill:none;}.cls-2{fill:#f6f6f6;}.cls-3{fill:#db9849;}.cls-4{clip-path:url(#clip-path);}.cls-5{fill:#acdbd1;}.cls-6{fill:#f7a18a;}.cls-7{fill:#99d3e7;}.cls-8{opacity:0.63;}.cls-9{fill:#fff;}.cls-10,.cls-17{opacity:0.04;}.cls-11{opacity:0.57;}.cls-12{fill:#f9cbcd;}.cls-13{fill:#fff2d2;}.cls-14,.cls-15{stroke:#f7a18a;stroke-linecap:round;stroke-linejoin:round;}.cls-14{stroke-width:5px;}.cls-15{stroke-width:6px;}.cls-16{opacity:0.41;}</style><clipPath id="clip-path" transform="translate(0 6.62)"><path class="cls-1" d="M365.5,26.83c-.09.11-.2.22-.3.33a12.31,12.31,0,0,1-1.36,1.33l-.27.23c-.3.25-.63.49-1,.74l-.28.2c-.38.26-.77.51-1.19.77h0c-15.62,9.51-60.71,16.39-113.94,16.39s-98.32-6.88-113.94-16.39h0c-.42-.26-.81-.51-1.18-.77l-.29-.2c-.34-.25-.67-.49-1-.74l-.27-.23a12.31,12.31,0,0,1-1.36-1.33,4.28,4.28,0,0,1-.29-.33c-.09-.1-.16-.2-.24-.3L139.75,300a27,27,0,0,0,26.86,26H329.8a27,27,0,0,0,26.86-26.23l9.1-273.31C365.67,26.6,365.59,26.72,365.5,26.83Z"/></clipPath></defs><path class="cls-2" d="M247.18.25C313.36.25,367,10.88,367,24a3,3,0,0,1,0,.52c0,.13,0,.27,0,.4s-.06.26-.09.38-.08.27-.12.39a6.35,6.35,0,0,1-.6,1.23l-.27.38a15.59,15.59,0,0,1-4.71,4C345.5,21.82,300.4,14.94,247.18,14.94s-98.32,6.88-113.94,16.39a15.89,15.89,0,0,1-4.72-4c-.11-.15-.21-.31-.3-.46s-.18-.31-.27-.47a5.79,5.79,0,0,1-.29-.68c0-.12-.09-.26-.12-.39a1.72,1.72,0,0,1-.08-.38,2.79,2.79,0,0,1-.07-.4,4.53,4.53,0,0,1,0-.52C127.36,10.88,181,.25,247.18.25Z" transform="translate(0 6.62)"/><path class="cls-3" d="M361.12,31.33a15.59,15.59,0,0,0,4.71-4c-8.1,11.54-58.13,20.43-118.65,20.43S136.62,38.83,128.52,27.29a15.89,15.89,0,0,0,4.72,4C148.86,21.82,194,14.94,247.18,14.94S345.5,21.82,361.12,31.33Z" transform="translate(0 6.62)"/><path class="cls-2" d="M365.5,26.83c-.09.11-.2.22-.3.33a12.31,12.31,0,0,1-1.36,1.33l-.27.23c-.3.25-.63.49-1,.74l-.28.2c-.38.26-.77.51-1.19.77h0c-15.62,9.51-60.71,16.39-113.94,16.39s-98.32-6.88-113.94-16.39h0c-.42-.26-.81-.51-1.18-.77l-.29-.2c-.34-.25-.67-.49-1-.74l-.27-.23a12.31,12.31,0,0,1-1.36-1.33,4.28,4.28,0,0,1-.29-.33c-.09-.1-.16-.2-.24-.3L139.75,300a27,27,0,0,0,26.86,26H329.8a27,27,0,0,0,26.86-26.23l9.1-273.31C365.67,26.6,365.59,26.72,365.5,26.83Z" transform="translate(0 6.62)"/><g class="cls-4"><path class="cls-5" d="M93.14,189c11.37-10.08,26.1-20.89,40.35-15.62,7.18,2.65,12.36,9,16.14,15.63,10.69,18.8,13.53,42.83,30,56.81,14.71,12.45,37,13.65,50.51,27.35,10.35,10.46,13.36,25.92,15.89,40.41,2.14,12.26,3.47,27-6,35.07-5.09,4.36-12.1,5.51-18.73,6.46q-19,2.72-38,4.93c-11.33,1.31-23.1,2.46-33.88-1.25-19.84-6.83-30.77-27.85-37.58-47.7a296.38,296.38,0,0,1-16-94.57" transform="translate(0 6.62)"/><path class="cls-6" d="M388.23,87.79c-27.16,21.09-70,7-98.13,26.86-3.11,2.19-6.05,4.91-7.35,8.48-1.38,3.77-.73,8,.77,11.77,3,7.43,9.27,14,8.76,22-.34,5.26-3.62,9.81-6.84,14-7.42,9.58-15.64,20-15.26,32.13.43,13.74,12.31,24.86,25.29,29.4s27.08,4.06,40.81,4.62a249.69,249.69,0,0,1,51.17,7.39c3.21.82,6.58,1.71,9.8.9a14.14,14.14,0,0,0,6.14-3.69c8.39-7.94,10.55-20.26,12.27-31.68l6-40.13" transform="translate(0 6.62)"/><path class="cls-7" d="M149.61-5.4c10,10.13,20.69,21.54,21.69,35.77.46,6.48-1.18,13-.23,19.45,2,13.34,14.68,23.6,15.31,37.07.47,10.13-6.6,19.69-15.82,23.9s-20.1,3.68-29.69.4-18.11-9.1-26.14-15.29c-7.22-5.57-14.39-11.8-18-20.15-3.44-7.82-3.44-16.77-2-25.2a79.33,79.33,0,0,1,32.42-51C132.28-4,138.3-7.1,144.57-6.56" transform="translate(0 6.62)"/></g><path class="cls-1" d="M365.5,26.83c-.09.11-.2.22-.3.33a12.31,12.31,0,0,1-1.36,1.33l-.27.23c-.3.25-.63.49-1,.74l-.28.2c-.38.26-.77.51-1.19.77h0c-15.62,9.51-60.71,16.39-113.94,16.39s-98.32-6.88-113.94-16.39h0c-.42-.26-.81-.51-1.18-.77l-.29-.2c-.34-.25-.67-.49-1-.74l-.27-.23a12.31,12.31,0,0,1-1.36-1.33,4.28,4.28,0,0,1-.29-.33c-.09-.1-.16-.2-.24-.3L139.75,300a27,27,0,0,0,26.86,26H329.8a27,27,0,0,0,26.86-26.23l9.1-273.31C365.67,26.6,365.59,26.72,365.5,26.83Z" transform="translate(0 6.62)"/><g class="cls-8"><path class="cls-9" d="M182.51,29.18c6.7.38,13.22,1,19.74,1.54s13,1,19.48,1.37,13,.63,19.51.84,13.09.34,19.78.75a96.1,96.1,0,0,1-19.61,4,126.27,126.27,0,0,1-20,.43,126.34,126.34,0,0,1-19.85-2.71A96.18,96.18,0,0,1,182.51,29.18Z" transform="translate(0 6.62)"/></g><g class="cls-10"><path d="M365.5,26.83c-.09.11-.2.22-.3.33a12.31,12.31,0,0,1-1.36,1.33l-.27.23c-.3.25-.63.49-1,.74l-.28.2c-.38.26-.77.51-1.19.77h0a58.52,58.52,0,0,1-12.43,5.26l-8.81,264.66A27.06,27.06,0,0,1,318.45,326H329.8a27,27,0,0,0,26.86-26.23l9.1-273.31C365.67,26.6,365.59,26.72,365.5,26.83Z" transform="translate(0 6.62)"/></g><g class="cls-11"><path class="cls-1" d="M151.69,59.49" transform="translate(0 6.62)"/><path class="cls-1" d="M151.42,59.28" transform="translate(0 6.62)"/><path class="cls-9" d="M158.6,301.47c-2.43-20.27-4-40.57-5.41-60.88s-2.37-40.63-3.13-61-1.25-40.67-1.42-61,0-40.71.87-61.11c2.43,20.27,4,40.57,5.41,60.88s2.38,40.63,3.13,61,1.24,40.68,1.41,61S159.5,281.08,158.6,301.47Z" transform="translate(0 6.62)"/></g><path class="cls-12" d="M99.51,186.68A99.51,99.51,0,1,0,199,286.19,99.51,99.51,0,0,0,99.51,186.68Zm.22,125.82A26.31,26.31,0,1,1,126,286.19,26.31,26.31,0,0,1,99.73,312.5Z" transform="translate(0 6.62)"/><path class="cls-13" d="M174,338c-3.07-1.38-7.09-3.82-15.15-7.15-4.42-1.83-6.45-2.45-8.58-1.72-3,1-4.21,3.86-6.86,9.72-7.22,16-8.81,18.75-12,20a10.36,10.36,0,0,1-8.58-.57c-3.51-2-3.62-5.41-6.86-12.58-3.48-7.71-5.56-12.31-9.15-13.16-5-1.18-10.8,5.6-14.3,9.73-8.41,9.91-8.7,17.74-13.72,18.3-3.89.43-7.53-3.83-9.15-5.72-5.21-6.08-3.59-11.58-8-13.73-3.22-1.56-7-.06-8.58.57-1.41.56-3.35,1.61-8.58,7.44-3.22,3.59-5.14,6.16-5.72,6.86-1.24,1.51-3.26,2.85-6.59,3.6a99.5,99.5,0,0,0,150.69-19.2A30.7,30.7,0,0,1,174,338Z" transform="translate(0 6.62)"/><line class="cls-14" x1="71.68" y1="229.1" x2="79.75" y2="238.64"/><line class="cls-14" x1="75.68" y1="328.03" x2="83.75" y2="337.57"/><line class="cls-14" x1="139.73" y1="266.27" x2="147.8" y2="275.81"/><line class="cls-14" x1="135.73" y1="229.1" x2="143.8" y2="238.64"/><line class="cls-14" x1="18.49" y1="296.58" x2="26.56" y2="306.12"/><line class="cls-14" x1="30.57" y1="335.4" x2="41.94" y2="330.21"/><line class="cls-14" x1="148.95" y1="316.53" x2="160.32" y2="311.33"/><line class="cls-14" x1="171.25" y1="266.2" x2="182.62" y2="261.01"/><line class="cls-14" x1="30.57" y1="241.04" x2="41.94" y2="235.85"/><line class="cls-14" x1="99.19" y1="216.45" x2="110.56" y2="211.26"/><line class="cls-15" x1="179.79" y1="292.24" x2="179.79" y2="301.31"/><line class="cls-15" x1="126.04" y1="320.83" x2="126.04" y2="329.9"/><line class="cls-15" x1="52.26" y1="301.39" x2="52.26" y2="310.46"/><line class="cls-15" x1="61.99" y1="257.36" x2="61.99" y2="266.42"/><line class="cls-15" x1="33.96" y1="266.51" x2="33.96" y2="275.57"/><line class="cls-15" x1="110.6" y1="240.77" x2="110.6" y2="249.84"/><g class="cls-16"><path class="cls-9" d="M11.23,314.42C6,302.19,4.44,288.32,6,274.75a90.93,90.93,0,0,1,43.26-67c11.73-7,25-11.25,38.33-11.53a138.58,138.58,0,0,0-33,19.29,114.16,114.16,0,0,0-39.38,60.95A138.12,138.12,0,0,0,11.23,314.42Z" transform="translate(0 6.62)"/></g><path class="cls-17" d="M137.8,194.47a99.52,99.52,0,0,1-95,173.72,99.52,99.52,0,1,0,95-173.72Z" transform="translate(0 6.62)"/></svg>